<mxfile host="app.diagrams.net" modified="2024-06-11T19:57:02.556Z" agent="Mozilla/5.0 (Windows NT 10.0; Win64; x64) AppleWebKit/537.36 (KHTML, like Gecko) Chrome/125.0.0.0 Safari/537.36 Edg/125.0.0.0" etag="BlBBP0mH9RqY-fze5spA" version="24.5.3" type="device">
  <diagram name="PÃ¡gina-1" id="UdEidBOJDZGr_NqOZe4f">
    <mxGraphModel dx="1054" dy="1744" grid="1" gridSize="10" guides="1" tooltips="1" connect="1" arrows="1" fold="1" page="1" pageScale="1" pageWidth="827" pageHeight="1169" math="0" shadow="0">
      <root>
        <mxCell id="0" />
        <mxCell id="1" parent="0" />
        <mxCell id="8_XGDFod1qkSy502GI1f-10" value="" style="rounded=1;whiteSpace=wrap;html=1;" vertex="1" parent="1">
          <mxGeometry x="80" y="50" width="420" height="360" as="geometry" />
        </mxCell>
        <mxCell id="8_XGDFod1qkSy502GI1f-2" value="" style="pointerEvents=1;shadow=0;dashed=0;html=1;strokeColor=none;fillColor=#4495D1;labelPosition=center;verticalLabelPosition=bottom;verticalAlign=top;align=center;outlineConnect=0;shape=mxgraph.veeam.vmware_host;" vertex="1" parent="1">
          <mxGeometry x="150" y="230" width="108" height="104" as="geometry" />
        </mxCell>
        <mxCell id="8_XGDFod1qkSy502GI1f-3" value="" style="pointerEvents=1;shadow=0;dashed=0;html=1;strokeColor=none;fillColor=#4495D1;labelPosition=center;verticalLabelPosition=bottom;verticalAlign=top;align=center;outlineConnect=0;shape=mxgraph.veeam.vmware_host;" vertex="1" parent="1">
          <mxGeometry x="322" y="230" width="108" height="104" as="geometry" />
        </mxCell>
        <mxCell id="8_XGDFod1qkSy502GI1f-5" value="VCENTER" style="rounded=1;whiteSpace=wrap;html=1;fillColor=#d5e8d4;strokeColor=#82b366;" vertex="1" parent="1">
          <mxGeometry x="170" y="70" width="260" height="60" as="geometry" />
        </mxCell>
        <mxCell id="8_XGDFod1qkSy502GI1f-6" value="" style="triangle;whiteSpace=wrap;html=1;rotation=90;fillColor=#dae8fc;strokeColor=#6c8ebf;" vertex="1" parent="1">
          <mxGeometry x="270" y="40" width="60" height="284.38" as="geometry" />
        </mxCell>
        <mxCell id="8_XGDFod1qkSy502GI1f-11" value="" style="shadow=0;dashed=0;html=1;strokeColor=none;fillColor=#4495D1;labelPosition=center;verticalLabelPosition=bottom;verticalAlign=top;align=center;outlineConnect=0;shape=mxgraph.veeam.building;" vertex="1" parent="1">
          <mxGeometry x="76.8" y="40" width="63.2" height="55.2" as="geometry" />
        </mxCell>
        <mxCell id="8_XGDFod1qkSy502GI1f-17" value="" style="rounded=1;whiteSpace=wrap;html=1;" vertex="1" parent="1">
          <mxGeometry x="563.2" y="60.00000000000001" width="420" height="360" as="geometry" />
        </mxCell>
        <mxCell id="8_XGDFod1qkSy502GI1f-18" value="" style="pointerEvents=1;shadow=0;dashed=0;html=1;strokeColor=none;fillColor=#4495D1;labelPosition=center;verticalLabelPosition=bottom;verticalAlign=top;align=center;outlineConnect=0;shape=mxgraph.veeam.vmware_host;" vertex="1" parent="1">
          <mxGeometry x="659" y="259.75" width="108" height="104" as="geometry" />
        </mxCell>
        <mxCell id="8_XGDFod1qkSy502GI1f-19" value="" style="pointerEvents=1;shadow=0;dashed=0;html=1;strokeColor=none;fillColor=#4495D1;labelPosition=center;verticalLabelPosition=bottom;verticalAlign=top;align=center;outlineConnect=0;shape=mxgraph.veeam.vmware_host;" vertex="1" parent="1">
          <mxGeometry x="830" y="259.75" width="108" height="104" as="geometry" />
        </mxCell>
        <mxCell id="8_XGDFod1qkSy502GI1f-20" value="VCENTER" style="rounded=1;whiteSpace=wrap;html=1;fillColor=#d5e8d4;strokeColor=#82b366;" vertex="1" parent="1">
          <mxGeometry x="680" y="95.2" width="210" height="60" as="geometry" />
        </mxCell>
        <mxCell id="8_XGDFod1qkSy502GI1f-21" value="" style="triangle;whiteSpace=wrap;html=1;rotation=90;fillColor=#dae8fc;strokeColor=#6c8ebf;" vertex="1" parent="1">
          <mxGeometry x="766.9999999999999" y="40" width="60" height="323.75" as="geometry" />
        </mxCell>
        <mxCell id="8_XGDFod1qkSy502GI1f-22" value="" style="shadow=0;dashed=0;html=1;strokeColor=none;fillColor=#4495D1;labelPosition=center;verticalLabelPosition=bottom;verticalAlign=top;align=center;outlineConnect=0;shape=mxgraph.veeam.building;" vertex="1" parent="1">
          <mxGeometry x="563.2" y="50" width="63.2" height="55.2" as="geometry" />
        </mxCell>
        <mxCell id="8_XGDFod1qkSy502GI1f-23" value="Text" style="text;html=1;align=center;verticalAlign=middle;whiteSpace=wrap;rounded=0;" vertex="1" parent="1">
          <mxGeometry x="560" y="280" width="60" height="30" as="geometry" />
        </mxCell>
        <mxCell id="8_XGDFod1qkSy502GI1f-24" value="&lt;b&gt;Site Alterno&lt;/b&gt;" style="text;html=1;align=center;verticalAlign=middle;whiteSpace=wrap;rounded=0;" vertex="1" parent="1">
          <mxGeometry x="720" y="20.63" width="100" height="30" as="geometry" />
        </mxCell>
        <mxCell id="8_XGDFod1qkSy502GI1f-25" value="&lt;b&gt;Site Principal&lt;/b&gt;" style="text;html=1;align=center;verticalAlign=middle;whiteSpace=wrap;rounded=0;" vertex="1" parent="1">
          <mxGeometry x="224.38" y="10" width="60" height="30" as="geometry" />
        </mxCell>
        <mxCell id="8_XGDFod1qkSy502GI1f-28" style="edgeStyle=orthogonalEdgeStyle;rounded=0;orthogonalLoop=1;jettySize=auto;html=1;entryX=0.006;entryY=0.471;entryDx=0;entryDy=0;entryPerimeter=0;" edge="1" parent="1" source="8_XGDFod1qkSy502GI1f-10" target="8_XGDFod1qkSy502GI1f-17">
          <mxGeometry relative="1" as="geometry" />
        </mxCell>
        <mxCell id="8_XGDFod1qkSy502GI1f-31" value="" style="shadow=0;dashed=0;html=1;labelPosition=center;verticalLabelPosition=bottom;verticalAlign=top;align=center;outlineConnect=0;shape=mxgraph.veeam.3d.vmware_host;" vertex="1" parent="1">
          <mxGeometry x="224" y="-320" width="110" height="98" as="geometry" />
        </mxCell>
        <mxCell id="8_XGDFod1qkSy502GI1f-32" value="" style="shadow=0;dashed=0;html=1;labelPosition=center;verticalLabelPosition=bottom;verticalAlign=top;align=center;outlineConnect=0;shape=mxgraph.veeam.3d.vmware_host;" vertex="1" parent="1">
          <mxGeometry x="430" y="-320" width="110" height="98" as="geometry" />
        </mxCell>
        <mxCell id="8_XGDFod1qkSy502GI1f-33" value="" style="shadow=0;dashed=0;html=1;labelPosition=center;verticalLabelPosition=bottom;verticalAlign=top;align=center;outlineConnect=0;shape=mxgraph.veeam.3d.vmware_host;" vertex="1" parent="1">
          <mxGeometry x="680" y="-330" width="110" height="98" as="geometry" />
        </mxCell>
        <mxCell id="8_XGDFod1qkSy502GI1f-34" value="Datastore" style="strokeWidth=2;html=1;shape=mxgraph.flowchart.database;whiteSpace=wrap;" vertex="1" parent="1">
          <mxGeometry x="250" y="360" width="60" height="44" as="geometry" />
        </mxCell>
        <mxCell id="8_XGDFod1qkSy502GI1f-38" value="Datastore" style="strokeWidth=2;html=1;shape=mxgraph.flowchart.database;whiteSpace=wrap;" vertex="1" parent="1">
          <mxGeometry x="750" y="370" width="70" height="50" as="geometry" />
        </mxCell>
        <mxCell id="8_XGDFod1qkSy502GI1f-40" value="" style="shape=flexArrow;endArrow=classic;startArrow=classic;html=1;rounded=0;" edge="1" parent="1">
          <mxGeometry width="100" height="100" relative="1" as="geometry">
            <mxPoint x="310" y="-340" as="sourcePoint" />
            <mxPoint x="650" y="-340" as="targetPoint" />
          </mxGeometry>
        </mxCell>
        <mxCell id="8_XGDFod1qkSy502GI1f-41" value="SRM" style="edgeStyle=orthogonalEdgeStyle;rounded=0;orthogonalLoop=1;jettySize=auto;html=1;entryX=0.2;entryY=0.26;entryDx=0;entryDy=0;entryPerimeter=0;fillColor=#dae8fc;strokeColor=#6c8ebf;strokeWidth=8;" edge="1" parent="1" source="8_XGDFod1qkSy502GI1f-34" target="8_XGDFod1qkSy502GI1f-38">
          <mxGeometry relative="1" as="geometry" />
        </mxCell>
      </root>
    </mxGraphModel>
  </diagram>
</mxfile>
